# xmcd
#
# Track frame offsets:
#	150
#	17664
#	36625
#	57544
#	73824
#	90849
#	115721
#	135810
#	152187
#	162009
#	175649
#	192231
#	204620
#	223721
#	240826
#	259718
#	283437
#	304192
#
# Disc length: 4244 seconds
#
# Revision: 0
# Processed by: cddbd v1.4PL0 Copyright (c) Steve Scherf et al.
# Submitted via: audiograbber 1.81.03
#
DISCID=fa109212
DTITLE=Tony Joe White - Createst Hits And More (Best Of ) - CD 1
DYEAR=2000
DGENRE=Pop
TTITLE0=Steamy Windows
TTITLE1=Cool Town Woman
TTITLE2=Undercover Agent For The Blues
TTITLE3=Rainy Night In Georgia
TTITLE4=Way Down South
TTITLE5=Ol' Black Crow
TTITLE6=Cold Fingers
TTITLE7=Paris Mood Tonight
TTITLE8=Saturday Night In Oak Grave, Louisiana
TTITLE9=Naughty Lady
TTITLE10=Polk Salad Annie
TTITLE11=Backwoods Preacher Man
TTITLE12=Did Somebody Make A Fool Out Of You
TTITLE13=As The Craw Flies
TTITLE14=Menutha
TTITLE15=Lake Placid Blues
TTITLE16=Let The Healing Begin
TTITLE17=Ol' Mather Earth
EXTD=
EXTT0=
EXTT1=
EXTT2=
EXTT3=
EXTT4=
EXTT5=
EXTT6=
EXTT7=
EXTT8=
EXTT9=
EXTT10=
EXTT11=
EXTT12=
EXTT13=
EXTT14=
EXTT15=
EXTT16=
EXTT17=
PLAYORDER=
